<svg width="1858" height="940" viewBox="0 0 1858 940" fill="none" xmlns="http://www.w3.org/2000/svg">
<path fill-rule="evenodd" clip-rule="evenodd" d="M1573 363L1598.64 395.236L1624.28 377.653L1573 363Z" fill="#EE765E"/>
<path fill-rule="evenodd" clip-rule="evenodd" d="M464.314 452L448 484.628L466.062 479.384L464.314 452Z" fill="#EE765E"/>
<path fill-rule="evenodd" clip-rule="evenodd" d="M1521.31 882L1505 914.628L1523.06 909.384L1521.31 882Z" fill="#EE765E"/>
<path fill-rule="evenodd" clip-rule="evenodd" d="M502 102.833H537.443L552.037 66L502 102.833Z" fill="#EE765E"/>
<path fill-rule="evenodd" clip-rule="evenodd" d="M80 871L86.409 892.558L99.8098 884.401L80 871Z" fill="#EE765E"/>
<path fill-rule="evenodd" clip-rule="evenodd" d="M515.187 852L502 871.048H521.048L515.187 852Z" fill="#EE765E"/>
<path fill-rule="evenodd" clip-rule="evenodd" d="M1711.19 705L1698 724.048H1717.05L1711.19 705Z" fill="#EE765E"/>
<path fill-rule="evenodd" clip-rule="evenodd" d="M1759 157.695L1759.69 166.729L1804.17 157L1759 157.695Z" fill="#EE765E"/>
<circle cx="174" cy="73" r="23" fill="#C0A360"/>
<circle cx="1406" cy="99" r="19" fill="#C0A360"/>
<circle cx="1505" cy="605" r="24" fill="#C0A360"/>
<ellipse cx="282" cy="645.5" rx="13" ry="12.5" fill="#C0A360"/>
<ellipse cx="1845" cy="927.5" rx="13" ry="12.5" fill="#C0A360"/>
<circle r="3" transform="matrix(-1 0 0 1 135 793)" fill="#C0A360"/>
<ellipse rx="4" ry="3.5" transform="matrix(-1 0 0 1 340 229.5)" fill="#C0A360"/>
<ellipse rx="3.5" ry="4" transform="matrix(-1 0 0 1 1817.5 530)" fill="#C0A360"/>
<ellipse rx="3.5" ry="4" transform="matrix(-1 0 0 1 1649.5 21)" fill="#C0A360"/>
<ellipse rx="3.5" ry="4" transform="matrix(-1 0 0 1 378.5 4)" fill="#C0A360"/>
<circle cx="11" cy="437" r="19" fill="#C0A360"/>
</svg>
