<svg version="1.1" xmlns="http://www.w3.org/2000/svg" x="0px" y="0px" viewBox="0 0 485.828 485.828" xml:space="preserve"><g>
	<path d="M60.622,207.41v26.392c0,5.799,4.701,10.5,10.5,10.5c5.799,0,10.5-4.701,10.5-10.5V207.41c0-5.799-4.701-10.5-10.5-10.5
		C65.323,196.91,60.622,201.612,60.622,207.41z"/><path d="M457.974,189.091h-44.603v-21.607c0-34.02-27.678-61.697-61.697-61.697s-61.696,27.677-61.696,61.697v21.608h-17.054
		V47.487c0-23.344-18.992-42.337-42.336-42.337c-23.345,0-42.337,19.049-42.337,42.464v86.197c0,11.765-9.571,21.336-21.337,21.336
		c-11.765,0-21.336-9.571-21.336-21.336V83.905c0-23.344-18.992-42.336-42.336-42.336c-23.345,0-42.337,18.992-42.337,42.336v81.482
		C26.816,168.427,0,197.133,0,231.998v81.77c0,36.885,30.008,66.893,66.893,66.893h8.459c36.885,0,66.893-30.008,66.893-66.893
		v-81.77c0-34.673-26.518-63.264-60.339-66.568V83.905c0-11.765,9.571-21.336,21.337-21.336c11.765,0,21.336,9.571,21.336,21.336
		v49.907c0,23.344,18.992,42.336,42.336,42.336c23.345,0,42.337-18.992,42.337-42.336V47.615c0-11.836,9.571-21.464,21.337-21.464
		c11.765,0,21.336,9.571,21.336,21.337v141.605h-6.549c-15.359,0-27.855,12.496-27.855,27.855v235.876
		c0,15.359,12.496,27.855,27.855,27.855h212.599c15.359,0,27.854-12.496,27.854-27.855V216.947
		C485.828,201.587,473.333,189.091,457.974,189.091z M121.244,231.998v81.77c0,25.305-20.587,45.893-45.893,45.893h-8.459
		C41.587,359.66,21,339.073,21,313.768v-81.77c0-25.306,20.587-45.893,45.893-45.893h8.459
		C100.657,186.105,121.244,206.693,121.244,231.998z M310.978,167.484c0-22.44,18.256-40.697,40.696-40.697
		s40.697,18.256,40.697,40.697v21.607h-81.394V167.484z M245.375,210.092h44.603v28.548c0,5.799,4.701,10.5,10.5,10.5
		s10.5-4.701,10.5-10.5v-28.549h81.394v28.548c0,5.799,4.701,10.5,10.5,10.5c5.799,0,10.5-4.701,10.5-10.5v-28.549h44.603
		c3.779,0,6.854,3.075,6.854,6.855v175.09H238.52v-175.09C238.52,213.167,241.595,210.092,245.375,210.092z M457.974,459.678
		H245.375c-3.78,0-6.855-3.075-6.855-6.855v-39.786h226.309v39.786C464.828,456.603,461.753,459.678,457.974,459.678z"/></g>
</svg>
